<svg width="195" height="195" viewBox="0 0 195 195" fill="none" xmlns="http://www.w3.org/2000/svg">
<circle cx="97.2116" cy="97.2116" r="93.2116" stroke="white" stroke-width="8"/>
<path d="M100.797 10.4531C100.797 10.4531 77.1355 55.6249 76.4185 98.6456C75.7015 141.666 93.6269 185.404 93.6269 185.404" stroke="white" stroke-width="8" stroke-linecap="round"/>
<path d="M116.571 10.4531C116.571 10.4531 92.9099 55.6249 92.1929 98.6456C91.4759 141.666 109.401 185.404 109.401 185.404" stroke="white" stroke-width="8" stroke-linecap="round"/>
<path d="M85.7396 21.2083L82.1545 29.0954" stroke="white" stroke-width="8" stroke-linecap="round"/>
<path d="M124.914 24.0764L121.329 31.9636" stroke="white" stroke-width="8" stroke-linecap="round"/>
<path d="M78.3224 38.3134L75.2314 46.407" stroke="white" stroke-width="8" stroke-linecap="round"/>
<path d="M117.495 41.1816L114.404 49.2751" stroke="white" stroke-width="8" stroke-linecap="round"/>
<path d="M71.8906 58.4293L69.4739 67.8775" stroke="white" stroke-width="8" stroke-linecap="round"/>
<path d="M111.064 61.2975L108.647 70.7457" stroke="white" stroke-width="8" stroke-linecap="round"/>
<path d="M67.0554 78.5695L65.8171 88.243" stroke="white" stroke-width="8" stroke-linecap="round"/>
<path d="M106.229 81.4375L104.991 91.1109" stroke="white" stroke-width="8" stroke-linecap="round"/>
<path d="M65.108 99.8664L64.7842 109.613" stroke="white" stroke-width="8" stroke-linecap="round"/>
<path d="M104.282 102.735L103.958 112.482" stroke="white" stroke-width="8" stroke-linecap="round"/>
<path d="M65.5886 121.439L67.1721 131.062" stroke="white" stroke-width="8" stroke-linecap="round"/>
<path d="M104.762 124.307L106.346 133.93" stroke="white" stroke-width="8" stroke-linecap="round"/>
<path d="M68.9432 142.464L72.1529 151.673" stroke="white" stroke-width="8" stroke-linecap="round"/>
<path d="M108.117 145.332L111.327 154.541" stroke="white" stroke-width="8" stroke-linecap="round"/>
<path d="M74.6657 161.939L78.8332 170.756" stroke="white" stroke-width="8" stroke-linecap="round"/>
<path d="M113.84 164.807L118.007 173.624" stroke="white" stroke-width="8" stroke-linecap="round"/>
</svg>