<svg width="165" height="182" viewBox="0 0 165 182" fill="none" xmlns="http://www.w3.org/2000/svg">
<path d="M154.729 79.1266V99.7263V165.672L146.042 179.512H14.2619L7.9742 165.672V79.1266M154.729 79.1266H20.9525M154.729 79.1266V64.8681L145.937 58.6301H26.1374M7.9742 79.1266L2.28198 51.5009L14.2619 43.4805M7.9742 79.1266H20.9525M14.2619 43.4805L26.1374 58.6301M14.2619 43.4805L151.734 2.48755L161.718 9.61676L154.729 20.3106L26.1374 58.6301M26.1374 58.6301L20.9525 79.1266" stroke="white" stroke-width="4"/>
<path d="M18.2247 61.5314C18.2247 64.0398 16.2419 66.0732 13.796 66.0732C11.35 66.0732 9.36719 64.0398 9.36719 61.5314C9.36719 59.0231 11.35 56.9896 13.796 56.9896C16.2419 56.9896 18.2247 59.0231 18.2247 61.5314Z" stroke="white" stroke-width="3"/>
<path d="M22.9495 114.876L136.759 114.876" stroke="white" stroke-width="4"/>
<path d="M22.9495 127.352H136.759M22.9495 141.611H136.759" stroke="white" stroke-width="4"/>
<path d="M62.8828 127.352V141.611" stroke="white" stroke-width="4"/>
<path d="M97.8237 128.243V142.501" stroke="white" stroke-width="4"/>
</svg>