<svg width="177" height="177" viewBox="0 0 177 177" fill="none" xmlns="http://www.w3.org/2000/svg">
<path d="M163.445 31.1758L148.092 55.0723L146.287 57.8799L143.884 55.542L137.718 49.5449L136.868 48.7188L136.197 49.6953L72.4836 142.441L70.3752 145.511L68.093 142.551L43.6438 110.842L42.6819 109.595L41.9622 110.995L22.8303 148.214L20.9934 151.785L18.3577 148.709L12.2424 141.57V133.46L18.8938 141.224L19.8616 142.354L20.5422 141.03L39.8206 103.526L41.7649 99.7432L44.3772 103.131L69.2795 135.428L70.1184 136.516L70.8958 135.384L134.222 43.2031L136.048 40.543L138.375 42.8057L144.436 48.7002L145.313 49.5527L145.974 48.5234L158.876 28.4414L162.72 27.2793L163.445 31.1758Z" fill="#808080" stroke="#808080" stroke-width="2"/>
<path d="M9.7832 2.75977L11.8086 6.26758V165.191H170.805L174.68 166.748L175.951 170.984L174.709 174.709L170.839 176H1V6.23633L2.7334 2.76758L6.47461 1.10547L9.7832 2.75977Z" fill="white" stroke="white" stroke-width="2"/>
<path d="M56.3315 65.0464L100.956 120.038L101.81 121.09L102.564 119.963L141.161 62.2007L155.55 75.728L155.958 83.2485L148.94 85.1704L143.714 79.9429L142.852 79.0815L142.175 80.0942L102.65 139.244L98.0444 133.569L52.4341 77.3608L51.7358 76.4995L50.9507 77.2837L12.1177 116.117V100.833L52.5562 60.394L56.3315 65.0464Z" fill="white" stroke="white" stroke-width="2"/>
</svg>